<svg id="LaunchScreen" xmlns="http://www.w3.org/2000/svg" xmlns:xlink="http://www.w3.org/1999/xlink" viewBox="0 0 1125 2436"><defs><style>.cls-1{fill:url(#linear-gradient);}.cls-2{fill:url(#linear-gradient-2);}.cls-3{fill:url(#linear-gradient-3);}.cls-4{fill:url(#linear-gradient-4);}.cls-5{font-size:80px;}.cls-11,.cls-13,.cls-15,.cls-5{font-family:SFCompactDisplay-Semibold, SF Compact Display;font-weight:600;}.cls-6{letter-spacing:0.01em;}.cls-7{letter-spacing:0em;}.cls-8{letter-spacing:0.01em;}.cls-9{letter-spacing:0em;}.cls-10{letter-spacing:-0.01em;}.cls-11{opacity:0.5;font-size:60px;}.cls-12{letter-spacing:-0.07em;}.cls-13{opacity:0.25;font-size:40px;}.cls-14{letter-spacing:-0.07em;}.cls-15{opacity:0.13;font-size:20px;}</style><linearGradient id="linear-gradient" x1="238.3" y1="936.42" x2="238.3" y2="1043.06" gradientUnits="userSpaceOnUse"><stop offset="0" stop-color="#29abe2"/><stop offset="1" stop-color="#0071bc"/></linearGradient><linearGradient id="linear-gradient-2" x1="330.1" y1="936.42" x2="330.1" y2="1043.06" xlink:href="#linear-gradient"/><linearGradient id="linear-gradient-3" x1="400.45" y1="936.42" x2="400.45" y2="1043.06" xlink:href="#linear-gradient"/><linearGradient id="linear-gradient-4" x1="464.55" y1="965.33" x2="464.55" y2="1044.86" xlink:href="#linear-gradient"/></defs><title>LaunchScreen</title><path class="cls-1" d="M195.72,936.42H243c19.61,0,32.81,9.77,32.81,26.18,0,13.59-8.75,21.25-19.06,23.28v1.17c11.87.86,24.14,9,24.14,25.78,0,19.37-16.33,30.23-37.11,30.23H195.72Zm25.55,43.36h12.42c11.8,0,16.88-5.15,16.88-12.73s-5.16-12.35-14.14-12.35H221.27Zm0,45H235.1c13.83,0,19.53-5.39,19.53-14.06s-5.7-14.37-16.95-14.37H221.27Z"/><path class="cls-2" d="M364.4,1043.06H295.8V936.42h25.86v85.08H364.4Z"/><path class="cls-3" d="M387.52,1043.06V957.52h-29v-21.1h83.82v21.1H413.3v85.54Z"/><path class="cls-4" d="M464.55,965.33a14.06,14.06,0,1,1-14.06,14.06A14.1,14.1,0,0,1,464.55,965.33Zm0,51.41a14.06,14.06,0,1,1-14.06,14.06A14.09,14.09,0,0,1,464.55,1016.74Z"/><text class="cls-5" transform="translate(189.61 1122.47)">Be<tspan class="cls-6" x="92.54" y="0">t</tspan><tspan class="cls-7" x="122.93" y="0">t</tspan><tspan x="152.5" y="0">er </tspan><tspan class="cls-8" x="241.68" y="0">L</tspan><tspan x="282.11" y="0">i</tspan><tspan class="cls-9" x="303.4" y="0">s</tspan><tspan x="343.4" y="0">t &amp; </tspan><tspan class="cls-10" x="457.38" y="0">T</tspan><tspan x="498.63" y="0">imer</tspan></text><text class="cls-11" transform="translate(651.68 1169.6)"><tspan class="cls-12">T</tspan><tspan x="27.16" y="0">o-Do</tspan></text><text class="cls-13" transform="translate(656.68 1206.57)"><tspan class="cls-14">T</tspan><tspan x="18.22" y="0">ask Manager</tspan></text><text class="cls-15" transform="translate(661.68 1228.53)"><tspan class="cls-12">T</tspan><tspan x="9.05" y="0">om</tspan><tspan class="cls-7" x="37.65" y="0">at</tspan><tspan x="55.68" y="0">o</tspan></text></svg>